<?xml version="1.0" standalone="no"?>
<!DOCTYPE svg PUBLIC "-//W3C//DTD SVG 20010904//EN"
 "http://www.w3.org/TR/2001/REC-SVG-20010904/DTD/svg10.dtd">
<svg version="1.0" xmlns="http://www.w3.org/2000/svg"
 width="4500.000000pt" height="4500.000000pt" viewBox="0 0 4500.000000 4500.000000"
 preserveAspectRatio="xMidYMid meet">
<metadata>
Created by potrace 1.16, written by Peter Selinger 2001-2019
</metadata>
<g transform="translate(0.000000,4500.000000) scale(0.100000,-0.100000)"
fill="#000000" stroke="none">
<path d="M19185 11875 c0 -1171 1 -1649 2 -1062 2 588 2 1546 0 2130 -1 584
-2 104 -2 -1068z"/>
<path d="M20482 13848 l-2 -158 -457 -2 -458 -3 0 -780 0 -780 402 -3 402 -2
4 -158 3 -157 -1 160 0 160 -402 3 -403 2 0 775 0 775 455 0 c364 0 457 3 461
13 2 7 3 80 1 162 l-3 150 -2 -157z"/>
<path d="M26125 11875 c0 -1171 1 -1649 2 -1062 2 588 2 1546 0 2130 -1 584
-2 104 -2 -1068z"/>
<path d="M15110 12905 l0 -785 405 0 404 0 4 -157 3 -158 -1 160 0 160 -402 3
-403 2 0 775 0 775 458 3 457 2 -462 3 -463 2 0 -785z"/>
<path d="M23930 13683 l300 -3 3 -1968 2 -1967 0 1970 0 1970 -303 0 -302 0
300 -2z"/>
<path d="M24615 13678 c-3 -7 -4 -895 -3 -1973 l3 -1960 3 1967 2 1968 303 3
302 2 -303 3 c-235 1 -304 -1 -307 -10z"/>
<path d="M15112 10938 l-2 -878 470 0 469 0 4 -152 3 -153 -1 155 0 155 -467
3 -468 2 -3 873 -2 872 -3 -877z"/>
<path d="M19565 10940 l0 -875 475 0 475 0 -472 2 -473 3 -3 873 -2 872 0
-875z"/>
</g>
</svg>
